<?xml version="1.0" encoding="UTF-8" standalone="no"?>
<svg
   height="24"
   viewBox="0 -960 960 960"
   width="24"
   fill="#ffffff"
   version="1.1"
   id="svg2722"
   sodipodi:docname="contact_support_24dp_FFFFFF_FILL0_wght400_GRAD0_opsz24.svg"
   inkscape:export-filename="contact_support_24dp_FFFFFF_FILL0_wght400_GRAD0_opsz24.svg"
   inkscape:export-xdpi="96"
   inkscape:export-ydpi="96"
   xmlns:inkscape="http://www.inkscape.org/namespaces/inkscape"
   xmlns:sodipodi="http://sodipodi.sourceforge.net/DTD/sodipodi-0.dtd"
   xmlns="http://www.w3.org/2000/svg"
   xmlns:svg="http://www.w3.org/2000/svg">
  <defs
     id="defs2726" />
  <sodipodi:namedview
     id="namedview2724"
     pagecolor="#ffffff"
     bordercolor="#999999"
     borderopacity="1"
     inkscape:showpageshadow="0"
     inkscape:pageopacity="0"
     inkscape:pagecheckerboard="0"
     inkscape:deskcolor="#d1d1d1"
     showgrid="false" />
  <rect
     style="fill:#000000;stroke-width:40;stroke-miterlimit:10;-inkscape-stroke:none;stop-color:#000000"
     id="rect2728"
     width="960.25922"
     height="960.164"
     x="-0.16100353"
     y="-960.09161"
     ry="191.04643"
     rx="0" />
  <path
     d="m 480,-80 -10,-120 h -10 q -142,0 -241,-99 -99,-99 -99,-241 0,-142 99,-241 99,-99 241,-99 71,0 132.5,26.5 61.5,26.5 108,73 46.5,46.5 73,108 26.5,61.5 26.5,132.5 0,75 -24.5,144 -24.5,69 -67,128 -42.5,59 -101,107 -58.5,48 -127.5,81 z m 80,-146 Q 631,-286 675.5,-366.5 720,-447 720,-540 720,-649 644.5,-724.5 569,-800 460,-800 351,-800 275.5,-724.5 200,-649 200,-540 q 0,109 75.5,184.5 Q 351,-280 460,-280 h 100 z m -101,-95 q 17,0 29,-12 12,-12 12,-29 0,-17 -12,-29 -12,-12 -29,-12 -17,0 -29,12 -12,12 -12,29 0,17 12,29 12,12 29,12 z m -29,-127 h 60 q 0,-30 6,-42 6,-12 38,-44 18,-18 30,-39 12,-21 12,-45 0,-51 -34.5,-76.5 Q 507,-720 460,-720 q -44,0 -74,24.5 -30,24.5 -42,59.5 l 56,22 q 5,-17 19,-33.5 14,-16.5 41,-16.5 27,0 40.5,15 13.5,15 13.5,33 0,17 -10,30.5 -10,13.5 -24,27.5 -35,30 -42.5,47.5 -7.5,17.5 -7.5,62.5 z m 30,-65 z"
     id="path2720" />
</svg>
