<?xml version="1.0" encoding="UTF-8"?>
<svg id="Layer_2" data-name="Layer 2" xmlns="http://www.w3.org/2000/svg" viewBox="0 0 1384.66 340">
  <defs>
    <style>
      .cls-1 {
        fill: #000;
        stroke-width: 0px;
      }
    </style>
  </defs>
  <g id="Layer_1-2" data-name="Layer 1">
    <g>
      <g>
        <path class="cls-1" d="M303.42,0H36.58C16.38,0,0,16.38,0,36.58v266.85c0,20.2,16.38,36.58,36.58,36.58h266.85c20.2,0,36.58-16.38,36.58-36.58V36.58C340,16.38,323.62,0,303.42,0ZM309.2,195.23c-2.17,9.77,1.9,22.79-6.78,27.95-8.68,5.16-30.92-2.61-37.1,5.75-5.17,7,9.69,31.43,2.37,38.75-7.33,7.33-31.76-7.54-38.75-2.37-8.36,6.18-.59,28.42-5.75,37.1-5.16,8.68-18.18,4.61-27.95,6.78-9.77,2.17-10.58,17.46-25.23,17.46s-15.47-15.29-25.23-17.46c-9.77-2.17-22.79,1.9-27.95-6.78-5.16-8.68,2.61-30.92-5.75-37.1-7-5.17-31.43,9.69-38.75,2.37s7.54-31.76,2.37-38.75c-6.18-8.36-28.42-.59-37.1-5.75-8.68-5.16-4.61-18.18-6.78-27.95-2.17-9.77-17.46-10.58-17.46-25.23,0-14.65,15.29-15.47,17.46-25.23,2.17-9.77-1.9-22.79,6.78-27.95,8.68-5.16,30.92,2.61,37.1-5.75,5.17-7-9.69-31.43-2.37-38.75,7.33-7.33,31.76,7.54,38.75,2.37,8.36-6.18.59-28.42,5.75-37.1,5.16-8.68,18.18-4.61,27.95-6.78,9.77-2.17,10.58-17.46,25.23-17.46s15.47,15.29,25.23,17.46c9.77,2.17,22.79-1.9,27.95,6.78,5.16,8.68-2.61,30.92,5.75,37.1,7,5.17,31.43-9.69,38.75-2.37,7.33,7.33-7.54,31.76-2.37,38.75,6.18,8.36,28.42.59,37.1,5.75,8.68,5.16,4.61,18.18,6.78,27.95,2.17,9.77,17.46,10.58,17.46,25.23,0,14.65-15.29,15.47-17.46,25.23Z"/>
        <path class="cls-1" d="M273.21,151.29c-1.61-7.24,1.41-16.9-5.03-20.72-6.44-3.82-22.93,1.94-27.51-4.26-3.83-5.19,7.19-23.3,1.76-28.74s-23.55,5.59-28.74,1.76c-6.2-4.58-.44-21.07-4.26-27.51-3.82-6.44-13.48-3.42-20.72-5.03-7.24-1.61-7.85-12.94-18.71-12.94s-11.47,11.33-18.71,12.94c-7.24,1.61-16.9-1.41-20.72,5.03-3.82,6.44,1.94,22.93-4.26,27.51-5.19,3.83-23.3-7.19-28.74-1.76s5.59,23.55,1.76,28.74c-4.58,6.2-21.07.44-27.51,4.26-6.44,3.82-3.42,13.48-5.03,20.72-1.61,7.24-12.94,7.85-12.94,18.71,0,10.86,11.33,11.47,12.94,18.71,1.61,7.24-1.41,16.9,5.03,20.72,6.44,3.82,22.93-1.94,27.51,4.26,3.83,5.19-7.19,23.3-1.76,28.74s23.55-5.59,28.74-1.76c6.2,4.58.44,21.07,4.26,27.51,3.82,6.44,13.48,3.42,20.72,5.03,7.24,1.61,7.85,12.94,18.71,12.94s11.47-11.33,18.71-12.94c7.24-1.61,16.9,1.41,20.72-5.03,3.82-6.44-1.94-22.93,4.26-27.51,5.19-3.83,23.3,7.19,28.74,1.76s-5.59-23.55-1.76-28.74c4.58-6.2,21.07-.44,27.51-4.26,6.44-3.82,3.42-13.48,5.03-20.72,1.61-7.24,12.94-7.85,12.94-18.71,0-10.86-11.33-11.47-12.94-18.71ZM234.86,181.76c-1.01,4.55.88,10.62-3.16,13.02-4.05,2.4-14.41-1.22-17.29,2.68-2.41,3.26,4.52,14.64,1.1,18.06-3.41,3.41-14.8-3.51-18.06-1.1-3.89,2.88-.28,13.24-2.68,17.29-2.4,4.05-8.47,2.15-13.02,3.16-4.55,1.01-4.93,8.13-11.76,8.13s-7.21-7.12-11.76-8.13c-4.55-1.01-10.62.88-13.02-3.16-2.4-4.05,1.22-14.41-2.68-17.29-3.26-2.41-14.64,4.52-18.06,1.1s3.51-14.8,1.1-18.06c-2.88-3.89-13.24-.28-17.29-2.68-4.05-2.4-2.15-8.47-3.16-13.02-1.01-4.55-8.13-4.93-8.13-11.76,0-6.83,7.12-7.21,8.13-11.76,1.01-4.55-.88-10.62,3.16-13.02,4.05-2.4,14.41,1.22,17.29-2.68,2.41-3.26-4.52-14.64-1.1-18.06s14.8,3.51,18.06,1.1c3.89-2.88.28-13.24,2.68-17.29,2.4-4.05,8.47-2.15,13.02-3.16,4.55-1.01,4.93-8.13,11.76-8.13s7.21,7.12,11.76,8.13c4.55,1.01,10.62-.88,13.02,3.16,2.4,4.05-1.22,14.41,2.68,17.29,3.26,2.41,14.64-4.52,18.06-1.1,3.41,3.41-3.51,14.8-1.1,18.06,2.88,3.89,13.24.28,17.29,2.68,4.05,2.4,2.15,8.47,3.16,13.02,1.01,4.55,8.13,4.93,8.13,11.76,0,6.83-7.12,7.21-8.13,11.76Z"/>
      </g>
      <g>
        <path class="cls-1" d="M424.66,0h20.47v62.04h77.98V0h20.26v147.42h-20.26v-66.54h-77.98v66.54h-20.47V0Z"/>
        <path class="cls-1" d="M555.15,171.78h16.37c3.14,0,5.63-.41,7.47-1.23s3.31-2.05,4.4-3.69c1.09-1.64,2.18-3.96,3.28-6.96l4.71-12.29-40.52-106.67h21.08l29.47,83.95,29.47-83.95h20.88l-46.26,122.64c-2.05,5.6-4.09,10.07-6.14,13.41-2.05,3.34-4.78,6.07-8.19,8.19-3.41,2.11-7.78,3.17-13.1,3.17h-22.92v-16.58Z"/>
        <path class="cls-1" d="M712.6,38.49c10.23,0,19.03,2.39,26.4,7.17,7.37,4.78,12.96,11.36,16.78,19.76,3.82,8.39,5.73,17.99,5.73,28.77s-1.91,20.37-5.73,28.77c-3.82,8.4-9.41,14.98-16.78,19.76-7.37,4.78-16.17,7.17-26.4,7.17-7.64,0-14.4-1.5-20.26-4.5-5.87-3-10.71-7.23-14.53-12.69v55.69h-19.24V40.95h18.42v15.97c3.96-5.87,8.87-10.41,14.74-13.62,5.86-3.2,12.82-4.81,20.88-4.81ZM709.53,55.49c-7.1,0-13,1.64-17.7,4.91-4.71,3.28-8.29,7.82-10.75,13.62-2.46,5.8-3.68,12.53-3.68,20.17s1.23,14.37,3.68,20.17c2.46,5.8,6.04,10.34,10.75,13.62,4.71,3.28,10.61,4.91,17.7,4.91s12.82-1.64,17.6-4.91c4.77-3.28,8.36-7.81,10.75-13.62,2.39-5.8,3.58-12.52,3.58-20.17s-1.2-14.36-3.58-20.17c-2.39-5.8-5.97-10.34-10.75-13.62-4.78-3.28-10.64-4.91-17.6-4.91Z"/>
        <path class="cls-1" d="M793.14,142.71c-7.64-4.78-13.54-11.4-17.7-19.86-4.16-8.46-6.24-18.02-6.24-28.66s2.08-20.2,6.24-28.67c4.16-8.46,10.06-15.08,17.7-19.86,7.64-4.78,16.51-7.17,26.61-7.17s18.96,2.39,26.61,7.17c7.64,4.78,13.51,11.43,17.6,19.96,4.09,8.53,6.14,18.26,6.14,29.18v6.14h-80.64c.68,6.42,2.28,12.01,4.81,16.79,2.52,4.78,5.94,8.53,10.23,11.26,4.3,2.73,9.38,4.09,15.25,4.09,6.82,0,12.69-1.6,17.6-4.81,4.91-3.21,8.6-7.61,11.05-13.21h19.65c-3.41,10.65-9.38,19.11-17.91,25.39-8.53,6.28-18.66,9.42-30.39,9.42-10.1,0-18.97-2.39-26.61-7.17ZM839.9,63.17c-5.12-5.25-11.84-7.88-20.16-7.88s-15.08,2.63-20.26,7.88c-5.19,5.26-8.46,12.39-9.82,21.4h59.97c-1.37-9.01-4.6-16.14-9.72-21.4Z"/>
        <path class="cls-1" d="M882.29,40.95h18.42v18.02c3.96-7.1,8.73-12.08,14.33-14.95,5.59-2.87,12-4.3,19.24-4.3h8.19v18.43h-8.8c-6.28,0-11.8,1.06-16.58,3.17-4.78,2.12-8.56,5.63-11.36,10.54-2.8,4.91-4.2,11.6-4.2,20.07v55.49h-19.24V40.95Z"/>
        <path class="cls-1" d="M967.64,142.71c-7.64-4.78-13.51-11.4-17.6-19.86-4.09-8.46-6.14-18.02-6.14-28.66s2.05-20.2,6.14-28.67c4.09-8.46,9.96-15.08,17.6-19.86,7.64-4.78,16.44-7.17,26.4-7.17,13.23,0,23.91,3.52,32.03,10.54,8.12,7.03,13,16.55,14.63,28.56h-19.85c-1.5-6.82-4.57-12.22-9.21-16.18-4.64-3.96-10.51-5.94-17.6-5.94-6.41,0-11.87,1.64-16.37,4.91-4.5,3.28-7.91,7.82-10.23,13.62-2.32,5.8-3.48,12.53-3.48,20.17s1.16,14.37,3.48,20.17c2.32,5.8,5.73,10.34,10.23,13.62,4.5,3.28,9.96,4.91,16.37,4.91,7.09,0,13-2.01,17.7-6.04,4.71-4.02,7.74-9.59,9.11-16.69h19.85c-1.5,11.88-6.48,21.47-14.94,28.77-8.46,7.3-19.03,10.95-31.72,10.95-9.96,0-18.76-2.39-26.4-7.17Z"/>
        <path class="cls-1" d="M1070.5,142.71c-7.64-4.78-13.54-11.4-17.7-19.86-4.16-8.46-6.24-18.02-6.24-28.66s2.08-20.2,6.24-28.67c4.16-8.46,10.06-15.08,17.7-19.86,7.64-4.78,16.51-7.17,26.61-7.17s18.96,2.39,26.61,7.17c7.64,4.78,13.51,11.43,17.6,19.96,4.09,8.53,6.14,18.26,6.14,29.18v6.14h-80.64c.68,6.42,2.28,12.01,4.81,16.79,2.52,4.78,5.94,8.53,10.23,11.26,4.3,2.73,9.38,4.09,15.25,4.09,6.82,0,12.69-1.6,17.6-4.81,4.91-3.21,8.6-7.61,11.05-13.21h19.65c-3.41,10.65-9.38,19.11-17.91,25.39-8.53,6.28-18.66,9.42-30.39,9.42-10.1,0-18.97-2.39-26.61-7.17ZM1117.27,63.17c-5.12-5.25-11.84-7.88-20.16-7.88s-15.08,2.63-20.26,7.88c-5.19,5.26-8.46,12.39-9.82,21.4h59.97c-1.37-9.01-4.6-16.14-9.72-21.4Z"/>
        <path class="cls-1" d="M1159.65,40.95h18.42v18.02c3.96-7.1,8.73-12.08,14.33-14.95,5.59-2.87,12-4.3,19.24-4.3h8.19v18.43h-8.8c-6.28,0-11.8,1.06-16.58,3.17-4.78,2.12-8.56,5.63-11.36,10.54-2.8,4.91-4.2,11.6-4.2,20.07v55.49h-19.24V40.95Z"/>
        <path class="cls-1" d="M1255.03,144.86c-3.75-1.71-6.55-4.37-8.39-7.98-1.84-3.62-2.76-8.43-2.76-14.44V57.33h-19.44v-16.38h19.44V8.19h19.44v32.76h28.24v16.38h-28.24v62.86c0,3.82.85,6.59,2.56,8.29,1.7,1.71,4.47,2.56,8.29,2.56h17.4v16.38h-21.49c-6.28,0-11.29-.85-15.04-2.56Z"/>
        <path class="cls-1" d="M1308.11,140.66c-8.19-6.14-12.62-15.49-13.3-28.05h19.24c.82,7.65,3.45,13.14,7.88,16.48,4.43,3.35,10.88,5.02,19.34,5.02,7.5,0,13.37-1.33,17.6-3.99,4.23-2.66,6.34-6.38,6.34-11.16,0-3.28-.61-5.87-1.84-7.78-1.23-1.91-3.72-3.58-7.47-5.02-3.75-1.43-9.45-2.76-17.09-3.99-10.51-1.77-18.76-4.13-24.76-7.06-6.01-2.93-10.2-6.48-12.59-10.65-2.39-4.16-3.58-9.25-3.58-15.25,0-9.28,3.72-16.72,11.15-22.32,7.44-5.6,17.16-8.4,29.17-8.4,13.78,0,24.56,3.11,32.34,9.32,7.78,6.21,11.8,14.92,12.07,26.11h-19.03c-.27-7.23-2.66-12.32-7.16-15.25-4.5-2.93-10.58-4.4-18.21-4.4-6.14,0-11.19,1.3-15.15,3.89-3.96,2.59-5.94,6.14-5.94,10.65,0,3.28.72,5.84,2.15,7.68,1.43,1.84,4.09,3.45,7.98,4.81,3.89,1.37,9.58,2.66,17.09,3.89,10.37,1.78,18.49,4.06,24.36,6.86,5.86,2.8,9.99,6.25,12.38,10.34,2.39,4.1,3.58,9.21,3.58,15.36,0,10.1-4.03,17.99-12.08,23.65-8.05,5.67-18.56,8.5-31.52,8.5-13.78,0-24.76-3.07-32.95-9.21Z"/>
        <path class="cls-1" d="M424.66,190.12h100.08v18.43h-79.61v43.2h75.52v18.22h-75.52v67.57h-20.47v-147.42Z"/>
        <path class="cls-1" d="M552.41,332.83c-7.91-4.78-13.99-11.4-18.22-19.86-4.23-8.46-6.34-18.02-6.34-28.66s2.11-20.2,6.34-28.67c4.23-8.46,10.3-15.08,18.22-19.86,7.91-4.78,17.12-7.17,27.63-7.17s19.92,2.39,27.83,7.17c7.91,4.78,13.95,11.4,18.11,19.86,4.16,8.47,6.24,18.02,6.24,28.67s-2.08,20.2-6.24,28.66c-4.16,8.47-10.2,15.08-18.11,19.86-7.91,4.78-17.19,7.17-27.83,7.17s-19.72-2.39-27.63-7.17ZM597.85,318.09c4.77-3.28,8.36-7.81,10.75-13.62,2.39-5.8,3.58-12.52,3.58-20.17s-1.2-14.36-3.58-20.17c-2.39-5.8-5.97-10.34-10.75-13.62-4.78-3.28-10.71-4.91-17.81-4.91s-13,1.64-17.7,4.91c-4.71,3.28-8.29,7.82-10.74,13.62-2.46,5.8-3.68,12.53-3.68,20.17s1.23,14.37,3.68,20.17c2.46,5.8,6.04,10.34,10.74,13.62,4.71,3.28,10.61,4.91,17.7,4.91s13.03-1.64,17.81-4.91Z"/>
        <path class="cls-1" d="M734.29,337.54h-18.42v-15.15c-3.96,5.32-8.77,9.59-14.43,12.8-5.66,3.21-12.25,4.81-19.75,4.81-8.46,0-15.52-1.81-21.18-5.43-5.66-3.62-9.86-8.43-12.59-14.43-2.73-6.01-4.09-12.62-4.09-19.86v-69.21h19.24v67.36c0,7.37,1.94,13.28,5.83,17.71,3.89,4.44,9.65,6.65,17.29,6.65,3.68,0,7.71-.85,12.07-2.56,4.37-1.71,8.25-4.95,11.67-9.73,3.41-4.78,5.12-11.47,5.12-20.07v-59.38h19.24v106.47Z"/>
        <path class="cls-1" d="M751.75,231.07h18.42v15.15c3.96-5.32,8.77-9.59,14.43-12.8,5.66-3.2,12.25-4.81,19.75-4.81,8.46,0,15.52,1.81,21.18,5.43,5.66,3.62,9.86,8.43,12.59,14.43,2.73,6.01,4.09,12.63,4.09,19.86v69.2h-19.24v-67.36c0-7.37-1.94-13.27-5.83-17.71-3.89-4.43-9.65-6.65-17.29-6.65-3.68,0-7.71.85-12.07,2.56-4.37,1.71-8.26,4.95-11.67,9.73-3.41,4.78-5.12,11.47-5.12,20.07v59.38h-19.24v-106.47Z"/>
        <path class="cls-1" d="M903.33,340c-10.23,0-19.03-2.39-26.4-7.17-7.37-4.78-12.96-11.36-16.78-19.76-3.82-8.4-5.73-17.98-5.73-28.77s1.91-20.37,5.73-28.77c3.82-8.4,9.41-14.98,16.78-19.76,7.37-4.78,16.17-7.17,26.4-7.17,7.64,0,14.39,1.5,20.26,4.5,5.86,3,10.71,7.24,14.53,12.69v-55.69h19.24v147.42h-18.42v-15.97c-3.96,5.87-8.87,10.41-14.74,13.62-5.87,3.21-12.83,4.81-20.88,4.81ZM906.4,323.01c7.09,0,13-1.64,17.7-4.91,4.71-3.28,8.29-7.81,10.75-13.62,2.46-5.8,3.68-12.52,3.68-20.17s-1.23-14.36-3.68-20.17c-2.46-5.8-6.04-10.34-10.75-13.62-4.71-3.28-10.61-4.91-17.7-4.91s-12.83,1.64-17.6,4.91c-4.78,3.28-8.36,7.82-10.75,13.62-2.39,5.8-3.58,12.53-3.58,20.17s1.19,14.37,3.58,20.17c2.39,5.8,5.97,10.34,10.75,13.62,4.77,3.28,10.64,4.91,17.6,4.91Z"/>
        <path class="cls-1" d="M979.48,331.71c-6.82-5.53-10.23-13.27-10.23-23.24,0-6.14,1.46-11.4,4.4-15.77,2.93-4.37,7.27-7.98,13-10.85,5.73-2.87,12.89-5.05,21.49-6.55l32.75-6.14v-7.58c0-5.87-1.88-10.1-5.63-12.69-3.75-2.59-9.31-3.89-16.68-3.89s-13.3,1.47-18.21,4.4c-4.91,2.94-7.57,7.82-7.98,14.64h-19.24c.41-12.01,4.84-20.92,13.3-26.72,8.46-5.8,19.1-8.7,31.93-8.7,13.78,0,24.11,2.73,31.01,8.19,6.89,5.46,10.34,13.04,10.34,22.73v78.01h-18.01v-13.1c-4.37,5.6-9.41,9.59-15.15,11.98-5.73,2.39-12.01,3.58-18.83,3.58-12.01,0-21.42-2.76-28.24-8.29ZM1024.81,320.86c4.71-1.98,8.56-5.12,11.56-9.42,3-4.3,4.5-9.59,4.5-15.87v-11.06l-29.68,5.94c-7.64,1.64-13.24,3.62-16.78,5.94-3.55,2.32-5.32,6.14-5.32,11.47s1.71,8.98,5.12,11.77c3.41,2.8,8.6,4.2,15.56,4.2,5.32,0,10.34-.99,15.04-2.97Z"/>
        <path class="cls-1" d="M1095.89,334.98c-3.75-1.71-6.55-4.37-8.39-7.98-1.84-3.62-2.76-8.43-2.76-14.44v-65.11h-19.44v-16.38h19.44v-32.76h19.44v32.76h28.24v16.38h-28.24v62.86c0,3.82.85,6.59,2.56,8.29,1.7,1.71,4.47,2.56,8.29,2.56h17.4v16.38h-21.49c-6.28,0-11.29-.85-15.04-2.56Z"/>
        <path class="cls-1" d="M1143.5,190.12h19.24v21.7h-19.24v-21.7ZM1143.5,231.07h19.44v106.47h-19.44v-106.47Z"/>
        <path class="cls-1" d="M1199.91,332.83c-7.91-4.78-13.99-11.4-18.21-19.86-4.23-8.46-6.34-18.02-6.34-28.66s2.11-20.2,6.34-28.67c4.23-8.46,10.3-15.08,18.21-19.86,7.91-4.78,17.12-7.17,27.63-7.17s19.92,2.39,27.83,7.17c7.91,4.78,13.95,11.4,18.11,19.86,4.16,8.47,6.24,18.02,6.24,28.67s-2.08,20.2-6.24,28.66c-4.16,8.47-10.2,15.08-18.11,19.86-7.91,4.78-17.19,7.17-27.83,7.17s-19.72-2.39-27.63-7.17ZM1245.34,318.09c4.77-3.28,8.36-7.81,10.74-13.62,2.39-5.8,3.58-12.52,3.58-20.17s-1.2-14.36-3.58-20.17c-2.39-5.8-5.97-10.34-10.74-13.62-4.78-3.28-10.71-4.91-17.81-4.91s-13,1.64-17.7,4.91c-4.71,3.28-8.29,7.82-10.75,13.62-2.46,5.8-3.68,12.53-3.68,20.17s1.23,14.37,3.68,20.17c2.46,5.8,6.04,10.34,10.75,13.62,4.71,3.28,10.61,4.91,17.7,4.91s13.03-1.64,17.81-4.91Z"/>
        <path class="cls-1" d="M1292.09,231.07h18.42v15.15c3.96-5.32,8.77-9.59,14.43-12.8,5.66-3.2,12.24-4.81,19.75-4.81,8.46,0,15.52,1.81,21.18,5.43,5.66,3.62,9.86,8.43,12.59,14.43,2.73,6.01,4.09,12.63,4.09,19.86v69.2h-19.24v-67.36c0-7.37-1.95-13.27-5.83-17.71-3.89-4.43-9.65-6.65-17.29-6.65-3.68,0-7.71.85-12.08,2.56-4.37,1.71-8.26,4.95-11.67,9.73-3.41,4.78-5.12,11.47-5.12,20.07v59.38h-19.24v-106.47Z"/>
      </g>
    </g>
  </g>
</svg>